<svg version="1.1" xmlns="http://www.w3.org/2000/svg" xmlns:xlink="http://www.w3.org/1999/xlink" width="1228" height="1915" viewBox="0 0 1228 1915"><defs/><g transform="matrix(1,0,0,1,0,0)"><g><g><g><path fill="none" stroke="#d3d3d3" paint-order="fill stroke markers" d=" M 0 0 L 1200 0" stroke-miterlimit="10" stroke-opacity="0.8" stroke-dasharray="5"/></g><g><path fill="none" stroke="#d3d3d3" paint-order="fill stroke markers" d=" M 0 0 L 0 800" stroke-miterlimit="10" stroke-opacity="0.8" stroke-dasharray="5"/></g></g><g id="_CA87037A-26C1-4623-A5E4-BD48EA4F7819" transform="matrix(1,0,0,1,1026.3333333333335,50)"><g><path fill="none" stroke="none"/></g><g transform="matrix(1,0,0,1,0,0)"><g transform="matrix(1,0,0,1,25,25)"><path fill="#ffffff" stroke="none" id="_CA87037A-26C1-4623-A5E4-BD48EA4F7819?shapeType=BACKGROUND" paint-order="stroke fill markers" d=" M 25 0 A 25 25 0 1 0 24.99998750000104 0.02499999583334189 Z"/></g><g transform="matrix(1,0,0,1,25,25)"><path fill="none" stroke="#d5d5d5" id="_CA87037A-26C1-4623-A5E4-BD48EA4F7819?shapeType=BORDER&amp;renderType=STROKE" paint-order="fill stroke markers" d=" M 25 0 A 25 25 0 1 0 24.99998750000104 0.02499999583334189 Z" stroke-miterlimit="10" stroke-width="2" stroke-dasharray=""/></g></g><g transform="matrix(1,0,0,1,7.24609375,17.5)"><text fill="#000000" stroke="none" font-family="Open Sans" font-size="12pt" font-style="normal" font-weight="normal" text-decoration="normal" x="17.75390625" y="12" text-anchor="middle" dominant-baseline="alphabetic" fill-opacity="0.4">Start</text></g></g><g transform="matrix(1,0,0,1,1026.3333333333335,50)"/><g id="_FCC86C62-C046-4D59-B929-0A09A1A452CC" transform="matrix(1,0,0,1,739.0000000000001,1818)"><g><path fill="none" stroke="none"/></g><g transform="matrix(1,0,0,1,0,0)"><path fill="#ffffff" stroke="none" id="_FCC86C62-C046-4D59-B929-0A09A1A452CC?shapeType=BACKGROUND" paint-order="stroke fill markers" d=" M 0 0 L 49 0 L 49 47 L 0 47 L 0 0 Z Z"/></g><g transform="matrix(1,0,0,1,0,0)"><path fill="none" stroke="#d5d5d5" id="_FCC86C62-C046-4D59-B929-0A09A1A452CC?shapeType=BORDER&amp;renderType=STROKE" paint-order="fill stroke markers" d=" M 0 0 L 49 0 L 49 47 L 0 47 L 0 0 Z Z" stroke-miterlimit="10" stroke-width="2" stroke-dasharray=""/></g><g transform="matrix(1,0,0,1,10.23828125,16)"><text fill="#000000" stroke="none" font-family="Open Sans" font-size="12pt" font-style="normal" font-weight="normal" text-decoration="normal" x="14.26171875" y="12" text-anchor="middle" dominant-baseline="alphabetic" fill-opacity="0.4">End</text></g></g><g transform="matrix(1,0,0,1,739.0000000000001,1818)"/><g id="_7D5DADD9-1E6E-4588-9ACA-EA47786E4B9B" transform="matrix(1,0,0,1,924.3333333333335,185)"><g><path fill="none" stroke="none"/></g><g transform="matrix(1,0,0,1,0,0)"><path fill="#ffffff" stroke="none" id="_7D5DADD9-1E6E-4588-9ACA-EA47786E4B9B?shapeType=BACKGROUND" paint-order="stroke fill markers" d=" M 5 0 L 249 0 L 249 0 A 5 5 0 0 1 254 5 L 254 87 L 254 87 A 5 5 0 0 1 249 92 L 5 92 L 5 92 A 5 5 0 0 1 0 87 L 0 5 L 0 5.000000000000001 A 5 5 0 0 1 4.999999999999999 0 Z"/></g><g transform="matrix(1,0,0,1,0,0)"><path fill="none" stroke="rgb(0,136,206)" id="_7D5DADD9-1E6E-4588-9ACA-EA47786E4B9B?shapeType=BORDER&amp;renderType=STROKE" paint-order="fill stroke markers" d=" M 10 0 L 244 0 L 244 0 A 10 10 0 0 1 254 10 L 254 82 L 254 82 A 10 10 0 0 1 244 92 L 10 92 L 10 92 A 10 10 0 0 1 0 82 L 0 10 L 0 10.000000000000002 A 10 10 0 0 1 9.999999999999998 0 Z" stroke-miterlimit="10" stroke-width="2" stroke-dasharray=""/></g><g transform="matrix(1,0,0,1,45,46)"><path fill="none" stroke="#d5d5d5" id="_7D5DADD9-1E6E-4588-9ACA-EA47786E4B9B_state-inner-circle" paint-order="fill stroke markers" d=" M 25 0 A 25 25 0 1 0 24.99998750000104 0.02499999583334189 Z" stroke-miterlimit="10" stroke-width="2" stroke-dasharray=""/></g><g transform="matrix(1,0,0,1,45,46)"><path fill="#0066cc" stroke="none" id="_7D5DADD9-1E6E-4588-9ACA-EA47786E4B9B_state-inner-circle-border" paint-order="stroke fill markers" d=" M 25 0 A 25 25 0 1 0 24.99998750000104 0.02499999583334189 Z"/></g><g><g transform="matrix(0.35,0,0,0.35,33.8,34.45)"><g transform="matrix(1,0,0,1,0,0)"><path fill="#ffffff" stroke="#ffffff" id="_7D5DADD9-1E6E-4588-9ACA-EA47786E4B9B_state__9lPi__EKpD" paint-order="fill stroke markers" d=" M 0 0 M 61.99 20.83 C 62.4 21.9 62.050000000000004 23.119999999999997 61.2 23.9 L 55.790000000000006 28.83 C 55.93000000000001 29.869999999999997 56.00000000000001 30.93 56.00000000000001 32 C 56.00000000000001 33.07 55.92000000000001 34.14 55.790000000000006 35.17 L 61.2 40.09 C 62.050000000000004 40.88 62.400000000000006 42.09 61.99 43.17 C 61.440000000000005 44.660000000000004 60.78 46.09 60.03 47.46 L 59.44 48.47 C 58.61 49.85 57.69 51.15 56.68 52.379999999999995 C 55.93 53.269999999999996 54.72 53.58 53.62 53.23 L 46.66 51.01 C 44.98 52.3 43.019999999999996 53.37 41.16 54.199999999999996 L 39.599999999999994 61.339999999999996 C 39.349999999999994 62.459999999999994 38.48 63.26 37.31999999999999 63.559999999999995 C 35.599999999999994 63.849999999999994 33.81999999999999 63.99999999999999 31.89999999999999 63.99999999999999 C 30.199999999999992 63.99999999999999 28.41999999999999 63.849999999999994 26.699999999999992 63.559999999999995 C 25.549999999999994 63.26 24.679999999999993 62.459999999999994 24.429999999999993 61.339999999999996 L 22.869999999999994 54.199999999999996 C 20.889999999999993 53.37 19.039999999999992 52.3 17.369999999999994 51.01 L 10.409999999999993 53.23 C 9.309999999999993 53.58 8.089999999999993 53.269999999999996 7.3499999999999925 52.379999999999995 C 6.339999999999993 51.13999999999999 5.409999999999993 49.839999999999996 4.589999999999993 48.47 L 3.999999999999993 47.46 C 3.239999999999993 46.1 2.579999999999993 44.660000000000004 2.029999999999993 43.17 C 1.6299999999999932 42.09 1.969999999999993 40.88 2.819999999999993 40.09 L 8.229999999999993 35.17 C 8.089999999999993 34.13 8.019999999999992 33.07 8.019999999999992 32 C 8.019999999999992 30.93 8.089999999999993 29.86 8.229999999999993 28.83 L 2.819999999999993 23.9 C 1.9599999999999933 23.11 1.6199999999999932 21.91 2.029999999999993 20.83 C 2.579999999999993 19.34 3.249999999999993 17.9 3.999999999999993 16.54 L 4.579999999999993 15.53 C 5.409999999999993 14.149999999999999 6.329999999999993 12.86 7.3499999999999925 11.62 C 8.089999999999993 10.729999999999999 9.309999999999992 10.42 10.409999999999993 10.77 L 17.369999999999994 12.99 C 19.039999999999992 11.7 20.889999999999993 10.620000000000001 22.869999999999994 9.81 L 24.429999999999993 2.670000000000001 C 24.679999999999993 1.540000000000001 25.549999999999994 0.6300000000000008 26.699999999999992 0.44000000000000083 C 28.429999999999993 0.15000000000000085 30.199999999999992 8.326672684688674e-16 32.00999999999999 8.326672684688674e-16 C 33.81999999999999 8.326672684688674e-16 35.599999999999994 0.15000000000000083 37.31999999999999 0.44000000000000083 C 38.46999999999999 0.6300000000000008 39.349999999999994 1.530000000000001 39.599999999999994 2.670000000000001 L 41.16 9.81 C 43.019999999999996 10.63 44.98 11.700000000000001 46.66 12.99 L 53.62 10.77 C 54.72 10.42 55.93 10.73 56.68 11.62 C 57.69 12.85 58.62 14.149999999999999 59.44 15.53 L 60.03 16.54 C 60.78 17.9 61.44 19.34 61.99 20.83 L 61.99 20.83 Z M 0 0 M 32 42 C 37.53 42 42 37.53 42 31.89 C 42 26.25 37.53 21.89 32 21.89 C 26.47 21.89 22 26.48 22 31.89 C 22 37.3 26.48 42 32 42 Z" stroke-miterlimit="10" stroke-width="3" stroke-dasharray=""/></g></g></g><g transform="matrix(1,0,0,1,85,38.5)"><text fill="#000000" stroke="none" font-family="Open Sans" font-size="12pt" font-style="normal" font-weight="normal" text-decoration="normal" x="51.87109375" y="12" text-anchor="middle" dominant-baseline="alphabetic">Reserve Flight</text></g></g><g transform="matrix(1,0,0,1,924.3333333333335,185)"/><g id="_01A91354-6EE4-4B3B-9AF2-EBF7A44A011F" transform="matrix(1,0,0,1,475.0000000000001,362)"><g><path fill="none" stroke="none"/></g><g transform="matrix(1,0,0,1,0,0)"><path fill="#ffffff" stroke="none" id="_01A91354-6EE4-4B3B-9AF2-EBF7A44A011F?shapeType=BACKGROUND" paint-order="stroke fill markers" d=" M 5 0 L 249 0 L 249 0 A 5 5 0 0 1 254 5 L 254 87 L 254 87 A 5 5 0 0 1 249 92 L 5 92 L 5 92 A 5 5 0 0 1 0 87 L 0 5 L 0 5.000000000000001 A 5 5 0 0 1 4.999999999999999 0 Z"/></g><g transform="matrix(1,0,0,1,0,0)"><path fill="none" stroke="#d5d5d5" id="_01A91354-6EE4-4B3B-9AF2-EBF7A44A011F?shapeType=BORDER&amp;renderType=STROKE" paint-order="fill stroke markers" d=" M 10 0 L 244 0 L 244 0 A 10 10 0 0 1 254 10 L 254 82 L 254 82 A 10 10 0 0 1 244 92 L 10 92 L 10 92 A 10 10 0 0 1 0 82 L 0 10 L 0 10.000000000000002 A 10 10 0 0 1 9.999999999999998 0 Z" stroke-miterlimit="10" stroke-width="2" stroke-dasharray=""/></g><g transform="matrix(1,0,0,1,45,46)"><path fill="none" stroke="#d5d5d5" id="_01A91354-6EE4-4B3B-9AF2-EBF7A44A011F_state-inner-circle" paint-order="fill stroke markers" d=" M 25 0 A 25 25 0 1 0 24.99998750000104 0.02499999583334189 Z" stroke-miterlimit="10" stroke-width="2" stroke-dasharray=""/></g><g transform="matrix(1,0,0,1,45,46)"><path fill="#0066cc" stroke="none" id="_01A91354-6EE4-4B3B-9AF2-EBF7A44A011F_state-inner-circle-border" paint-order="stroke fill markers" d=" M 25 0 A 25 25 0 1 0 24.99998750000104 0.02499999583334189 Z"/></g><g><g transform="matrix(0.35,0,0,0.35,33.8,34.45)"><g transform="matrix(1,0,0,1,0,0)"><path fill="#ffffff" stroke="#ffffff" id="_01A91354-6EE4-4B3B-9AF2-EBF7A44A011F_state__9lPi__EKpD" paint-order="fill stroke markers" d=" M 0 0 M 61.99 20.83 C 62.4 21.9 62.050000000000004 23.119999999999997 61.2 23.9 L 55.790000000000006 28.83 C 55.93000000000001 29.869999999999997 56.00000000000001 30.93 56.00000000000001 32 C 56.00000000000001 33.07 55.92000000000001 34.14 55.790000000000006 35.17 L 61.2 40.09 C 62.050000000000004 40.88 62.400000000000006 42.09 61.99 43.17 C 61.440000000000005 44.660000000000004 60.78 46.09 60.03 47.46 L 59.44 48.47 C 58.61 49.85 57.69 51.15 56.68 52.379999999999995 C 55.93 53.269999999999996 54.72 53.58 53.62 53.23 L 46.66 51.01 C 44.98 52.3 43.019999999999996 53.37 41.16 54.199999999999996 L 39.599999999999994 61.339999999999996 C 39.349999999999994 62.459999999999994 38.48 63.26 37.31999999999999 63.559999999999995 C 35.599999999999994 63.849999999999994 33.81999999999999 63.99999999999999 31.89999999999999 63.99999999999999 C 30.199999999999992 63.99999999999999 28.41999999999999 63.849999999999994 26.699999999999992 63.559999999999995 C 25.549999999999994 63.26 24.679999999999993 62.459999999999994 24.429999999999993 61.339999999999996 L 22.869999999999994 54.199999999999996 C 20.889999999999993 53.37 19.039999999999992 52.3 17.369999999999994 51.01 L 10.409999999999993 53.23 C 9.309999999999993 53.58 8.089999999999993 53.269999999999996 7.3499999999999925 52.379999999999995 C 6.339999999999993 51.13999999999999 5.409999999999993 49.839999999999996 4.589999999999993 48.47 L 3.999999999999993 47.46 C 3.239999999999993 46.1 2.579999999999993 44.660000000000004 2.029999999999993 43.17 C 1.6299999999999932 42.09 1.969999999999993 40.88 2.819999999999993 40.09 L 8.229999999999993 35.17 C 8.089999999999993 34.13 8.019999999999992 33.07 8.019999999999992 32 C 8.019999999999992 30.93 8.089999999999993 29.86 8.229999999999993 28.83 L 2.819999999999993 23.9 C 1.9599999999999933 23.11 1.6199999999999932 21.91 2.029999999999993 20.83 C 2.579999999999993 19.34 3.249999999999993 17.9 3.999999999999993 16.54 L 4.579999999999993 15.53 C 5.409999999999993 14.149999999999999 6.329999999999993 12.86 7.3499999999999925 11.62 C 8.089999999999993 10.729999999999999 9.309999999999992 10.42 10.409999999999993 10.77 L 17.369999999999994 12.99 C 19.039999999999992 11.7 20.889999999999993 10.620000000000001 22.869999999999994 9.81 L 24.429999999999993 2.670000000000001 C 24.679999999999993 1.540000000000001 25.549999999999994 0.6300000000000008 26.699999999999992 0.44000000000000083 C 28.429999999999993 0.15000000000000085 30.199999999999992 8.326672684688674e-16 32.00999999999999 8.326672684688674e-16 C 33.81999999999999 8.326672684688674e-16 35.599999999999994 0.15000000000000083 37.31999999999999 0.44000000000000083 C 38.46999999999999 0.6300000000000008 39.349999999999994 1.530000000000001 39.599999999999994 2.670000000000001 L 41.16 9.81 C 43.019999999999996 10.63 44.98 11.700000000000001 46.66 12.99 L 53.62 10.77 C 54.72 10.42 55.93 10.73 56.68 11.62 C 57.69 12.85 58.62 14.149999999999999 59.44 15.53 L 60.03 16.54 C 60.78 17.9 61.44 19.34 61.99 20.83 L 61.99 20.83 Z M 0 0 M 32 42 C 37.53 42 42 37.53 42 31.89 C 42 26.25 37.53 21.89 32 21.89 C 26.47 21.89 22 26.48 22 31.89 C 22 37.3 26.48 42 32 42 Z" stroke-miterlimit="10" stroke-width="3" stroke-dasharray=""/></g></g></g><g transform="matrix(1,0,0,1,85,38.5)"><text fill="#000000" stroke="none" font-family="Open Sans" font-size="12pt" font-style="normal" font-weight="normal" text-decoration="normal" x="70.05859375" y="12" text-anchor="middle" dominant-baseline="alphabetic">Reserve Car Rental</text></g></g><g transform="matrix(1,0,0,1,475.0000000000001,362)"/><g id="_E0C4A2F5-8906-4866-8771-5E0B826B8E77" transform="matrix(1,0,0,1,475.0000000000001,539)"><g><path fill="none" stroke="none"/></g><g transform="matrix(1,0,0,1,0,0)"><path fill="#ffffff" stroke="none" id="_E0C4A2F5-8906-4866-8771-5E0B826B8E77?shapeType=BACKGROUND" paint-order="stroke fill markers" d=" M 5 0 L 249 0 L 249 0 A 5 5 0 0 1 254 5 L 254 87 L 254 87 A 5 5 0 0 1 249 92 L 5 92 L 5 92 A 5 5 0 0 1 0 87 L 0 5 L 0 5.000000000000001 A 5 5 0 0 1 4.999999999999999 0 Z"/></g><g transform="matrix(1,0,0,1,0,0)"><path fill="none" stroke="#d5d5d5" id="_E0C4A2F5-8906-4866-8771-5E0B826B8E77?shapeType=BORDER&amp;renderType=STROKE" paint-order="fill stroke markers" d=" M 10 0 L 244 0 L 244 0 A 10 10 0 0 1 254 10 L 254 82 L 254 82 A 10 10 0 0 1 244 92 L 10 92 L 10 92 A 10 10 0 0 1 0 82 L 0 10 L 0 10.000000000000002 A 10 10 0 0 1 9.999999999999998 0 Z" stroke-miterlimit="10" stroke-width="2" stroke-dasharray=""/></g><g transform="matrix(1,0,0,1,45,46)"><path fill="none" stroke="#d5d5d5" id="_E0C4A2F5-8906-4866-8771-5E0B826B8E77_state-inner-circle" paint-order="fill stroke markers" d=" M 25 0 A 25 25 0 1 0 24.99998750000104 0.02499999583334189 Z" stroke-miterlimit="10" stroke-width="2" stroke-dasharray=""/></g><g transform="matrix(1,0,0,1,45,46)"><path fill="#0066cc" stroke="none" id="_E0C4A2F5-8906-4866-8771-5E0B826B8E77_state-inner-circle-border" paint-order="stroke fill markers" d=" M 25 0 A 25 25 0 1 0 24.99998750000104 0.02499999583334189 Z"/></g><g><g transform="matrix(0.35,0,0,0.35,33.8,34.45)"><g transform="matrix(1,0,0,1,0,0)"><path fill="#ffffff" stroke="#ffffff" id="_E0C4A2F5-8906-4866-8771-5E0B826B8E77_state__9lPi__EKpD" paint-order="fill stroke markers" d=" M 0 0 M 61.99 20.83 C 62.4 21.9 62.050000000000004 23.119999999999997 61.2 23.9 L 55.790000000000006 28.83 C 55.93000000000001 29.869999999999997 56.00000000000001 30.93 56.00000000000001 32 C 56.00000000000001 33.07 55.92000000000001 34.14 55.790000000000006 35.17 L 61.2 40.09 C 62.050000000000004 40.88 62.400000000000006 42.09 61.99 43.17 C 61.440000000000005 44.660000000000004 60.78 46.09 60.03 47.46 L 59.44 48.47 C 58.61 49.85 57.69 51.15 56.68 52.379999999999995 C 55.93 53.269999999999996 54.72 53.58 53.62 53.23 L 46.66 51.01 C 44.98 52.3 43.019999999999996 53.37 41.16 54.199999999999996 L 39.599999999999994 61.339999999999996 C 39.349999999999994 62.459999999999994 38.48 63.26 37.31999999999999 63.559999999999995 C 35.599999999999994 63.849999999999994 33.81999999999999 63.99999999999999 31.89999999999999 63.99999999999999 C 30.199999999999992 63.99999999999999 28.41999999999999 63.849999999999994 26.699999999999992 63.559999999999995 C 25.549999999999994 63.26 24.679999999999993 62.459999999999994 24.429999999999993 61.339999999999996 L 22.869999999999994 54.199999999999996 C 20.889999999999993 53.37 19.039999999999992 52.3 17.369999999999994 51.01 L 10.409999999999993 53.23 C 9.309999999999993 53.58 8.089999999999993 53.269999999999996 7.3499999999999925 52.379999999999995 C 6.339999999999993 51.13999999999999 5.409999999999993 49.839999999999996 4.589999999999993 48.47 L 3.999999999999993 47.46 C 3.239999999999993 46.1 2.579999999999993 44.660000000000004 2.029999999999993 43.17 C 1.6299999999999932 42.09 1.969999999999993 40.88 2.819999999999993 40.09 L 8.229999999999993 35.17 C 8.089999999999993 34.13 8.019999999999992 33.07 8.019999999999992 32 C 8.019999999999992 30.93 8.089999999999993 29.86 8.229999999999993 28.83 L 2.819999999999993 23.9 C 1.9599999999999933 23.11 1.6199999999999932 21.91 2.029999999999993 20.83 C 2.579999999999993 19.34 3.249999999999993 17.9 3.999999999999993 16.54 L 4.579999999999993 15.53 C 5.409999999999993 14.149999999999999 6.329999999999993 12.86 7.3499999999999925 11.62 C 8.089999999999993 10.729999999999999 9.309999999999992 10.42 10.409999999999993 10.77 L 17.369999999999994 12.99 C 19.039999999999992 11.7 20.889999999999993 10.620000000000001 22.869999999999994 9.81 L 24.429999999999993 2.670000000000001 C 24.679999999999993 1.540000000000001 25.549999999999994 0.6300000000000008 26.699999999999992 0.44000000000000083 C 28.429999999999993 0.15000000000000085 30.199999999999992 8.326672684688674e-16 32.00999999999999 8.326672684688674e-16 C 33.81999999999999 8.326672684688674e-16 35.599999999999994 0.15000000000000083 37.31999999999999 0.44000000000000083 C 38.46999999999999 0.6300000000000008 39.349999999999994 1.530000000000001 39.599999999999994 2.670000000000001 L 41.16 9.81 C 43.019999999999996 10.63 44.98 11.700000000000001 46.66 12.99 L 53.62 10.77 C 54.72 10.42 55.93 10.73 56.68 11.62 C 57.69 12.85 58.62 14.149999999999999 59.44 15.53 L 60.03 16.54 C 60.78 17.9 61.44 19.34 61.99 20.83 L 61.99 20.83 Z M 0 0 M 32 42 C 37.53 42 42 37.53 42 31.89 C 42 26.25 37.53 21.89 32 21.89 C 26.47 21.89 22 26.48 22 31.89 C 22 37.3 26.48 42 32 42 Z" stroke-miterlimit="10" stroke-width="3" stroke-dasharray=""/></g></g></g><g transform="matrix(1,0,0,1,85,38.5)"><text fill="#000000" stroke="none" font-family="Open Sans" font-size="12pt" font-style="normal" font-weight="normal" text-decoration="normal" x="63.72265625" y="12" text-anchor="middle" dominant-baseline="alphabetic">Process Payment</text></g></g><g transform="matrix(1,0,0,1,475.0000000000001,539)"/><g id="_C1E17F53-6628-490D-97F6-CD94B4D354FB" transform="matrix(1,0,0,1,475.0000000000001,716)"><g><path fill="none" stroke="none"/></g><g transform="matrix(1,0,0,1,0,0)"><path fill="#ffffff" stroke="none" id="_C1E17F53-6628-490D-97F6-CD94B4D354FB?shapeType=BACKGROUND" paint-order="stroke fill markers" d=" M 5 0 L 249 0 L 249 0 A 5 5 0 0 1 254 5 L 254 87 L 254 87 A 5 5 0 0 1 249 92 L 5 92 L 5 92 A 5 5 0 0 1 0 87 L 0 5 L 0 5.000000000000001 A 5 5 0 0 1 4.999999999999999 0 Z"/></g><g transform="matrix(1,0,0,1,0,0)"><path fill="none" stroke="#d5d5d5" id="_C1E17F53-6628-490D-97F6-CD94B4D354FB?shapeType=BORDER&amp;renderType=STROKE" paint-order="fill stroke markers" d=" M 10 0 L 244 0 L 244 0 A 10 10 0 0 1 254 10 L 254 82 L 254 82 A 10 10 0 0 1 244 92 L 10 92 L 10 92 A 10 10 0 0 1 0 82 L 0 10 L 0 10.000000000000002 A 10 10 0 0 1 9.999999999999998 0 Z" stroke-miterlimit="10" stroke-width="2" stroke-dasharray=""/></g><g transform="matrix(1,0,0,1,45,46)"><path fill="none" stroke="#d5d5d5" id="_C1E17F53-6628-490D-97F6-CD94B4D354FB_state-inner-circle" paint-order="fill stroke markers" d=" M 25 0 A 25 25 0 1 0 24.99998750000104 0.02499999583334189 Z" stroke-miterlimit="10" stroke-width="2" stroke-dasharray=""/></g><g transform="matrix(1,0,0,1,45,46)"><path fill="#0066cc" stroke="none" id="_C1E17F53-6628-490D-97F6-CD94B4D354FB_state-inner-circle-border" paint-order="stroke fill markers" d=" M 25 0 A 25 25 0 1 0 24.99998750000104 0.02499999583334189 Z"/></g><g><g transform="matrix(0.35,0,0,0.35,33.8,34.45)"><g transform="matrix(1,0,0,1,0,0)"><path fill="#ffffff" stroke="#ffffff" id="_C1E17F53-6628-490D-97F6-CD94B4D354FB_state__9lPi__EKpD" paint-order="fill stroke markers" d=" M 0 0 M 61.99 20.83 C 62.4 21.9 62.050000000000004 23.119999999999997 61.2 23.9 L 55.790000000000006 28.83 C 55.93000000000001 29.869999999999997 56.00000000000001 30.93 56.00000000000001 32 C 56.00000000000001 33.07 55.92000000000001 34.14 55.790000000000006 35.17 L 61.2 40.09 C 62.050000000000004 40.88 62.400000000000006 42.09 61.99 43.17 C 61.440000000000005 44.660000000000004 60.78 46.09 60.03 47.46 L 59.44 48.47 C 58.61 49.85 57.69 51.15 56.68 52.379999999999995 C 55.93 53.269999999999996 54.72 53.58 53.62 53.23 L 46.66 51.01 C 44.98 52.3 43.019999999999996 53.37 41.16 54.199999999999996 L 39.599999999999994 61.339999999999996 C 39.349999999999994 62.459999999999994 38.48 63.26 37.31999999999999 63.559999999999995 C 35.599999999999994 63.849999999999994 33.81999999999999 63.99999999999999 31.89999999999999 63.99999999999999 C 30.199999999999992 63.99999999999999 28.41999999999999 63.849999999999994 26.699999999999992 63.559999999999995 C 25.549999999999994 63.26 24.679999999999993 62.459999999999994 24.429999999999993 61.339999999999996 L 22.869999999999994 54.199999999999996 C 20.889999999999993 53.37 19.039999999999992 52.3 17.369999999999994 51.01 L 10.409999999999993 53.23 C 9.309999999999993 53.58 8.089999999999993 53.269999999999996 7.3499999999999925 52.379999999999995 C 6.339999999999993 51.13999999999999 5.409999999999993 49.839999999999996 4.589999999999993 48.47 L 3.999999999999993 47.46 C 3.239999999999993 46.1 2.579999999999993 44.660000000000004 2.029999999999993 43.17 C 1.6299999999999932 42.09 1.969999999999993 40.88 2.819999999999993 40.09 L 8.229999999999993 35.17 C 8.089999999999993 34.13 8.019999999999992 33.07 8.019999999999992 32 C 8.019999999999992 30.93 8.089999999999993 29.86 8.229999999999993 28.83 L 2.819999999999993 23.9 C 1.9599999999999933 23.11 1.6199999999999932 21.91 2.029999999999993 20.83 C 2.579999999999993 19.34 3.249999999999993 17.9 3.999999999999993 16.54 L 4.579999999999993 15.53 C 5.409999999999993 14.149999999999999 6.329999999999993 12.86 7.3499999999999925 11.62 C 8.089999999999993 10.729999999999999 9.309999999999992 10.42 10.409999999999993 10.77 L 17.369999999999994 12.99 C 19.039999999999992 11.7 20.889999999999993 10.620000000000001 22.869999999999994 9.81 L 24.429999999999993 2.670000000000001 C 24.679999999999993 1.540000000000001 25.549999999999994 0.6300000000000008 26.699999999999992 0.44000000000000083 C 28.429999999999993 0.15000000000000085 30.199999999999992 8.326672684688674e-16 32.00999999999999 8.326672684688674e-16 C 33.81999999999999 8.326672684688674e-16 35.599999999999994 0.15000000000000083 37.31999999999999 0.44000000000000083 C 38.46999999999999 0.6300000000000008 39.349999999999994 1.530000000000001 39.599999999999994 2.670000000000001 L 41.16 9.81 C 43.019999999999996 10.63 44.98 11.700000000000001 46.66 12.99 L 53.62 10.77 C 54.72 10.42 55.93 10.73 56.68 11.62 C 57.69 12.85 58.62 14.149999999999999 59.44 15.53 L 60.03 16.54 C 60.78 17.9 61.44 19.34 61.99 20.83 L 61.99 20.83 Z M 0 0 M 32 42 C 37.53 42 42 37.53 42 31.89 C 42 26.25 37.53 21.89 32 21.89 C 26.47 21.89 22 26.48 22 31.89 C 22 37.3 26.48 42 32 42 Z" stroke-miterlimit="10" stroke-width="3" stroke-dasharray=""/></g></g></g><g transform="matrix(1,0,0,1,85,38.5)"><text fill="#000000" stroke="none" font-family="Open Sans" font-size="12pt" font-style="normal" font-weight="normal" text-decoration="normal" x="52.6015625" y="12" text-anchor="middle" dominant-baseline="alphabetic">Confirm Flight</text></g></g><g transform="matrix(1,0,0,1,475.0000000000001,716)"/><g id="_90B29B80-3DD5-4F5F-9914-C544C7660D57" transform="matrix(1,0,0,1,475.0000000000001,893)"><g><path fill="none" stroke="none"/></g><g transform="matrix(1,0,0,1,0,0)"><path fill="#ffffff" stroke="none" id="_90B29B80-3DD5-4F5F-9914-C544C7660D57?shapeType=BACKGROUND" paint-order="stroke fill markers" d=" M 5 0 L 249 0 L 249 0 A 5 5 0 0 1 254 5 L 254 87 L 254 87 A 5 5 0 0 1 249 92 L 5 92 L 5 92 A 5 5 0 0 1 0 87 L 0 5 L 0 5.000000000000001 A 5 5 0 0 1 4.999999999999999 0 Z"/></g><g transform="matrix(1,0,0,1,0,0)"><path fill="none" stroke="#d5d5d5" id="_90B29B80-3DD5-4F5F-9914-C544C7660D57?shapeType=BORDER&amp;renderType=STROKE" paint-order="fill stroke markers" d=" M 10 0 L 244 0 L 244 0 A 10 10 0 0 1 254 10 L 254 82 L 254 82 A 10 10 0 0 1 244 92 L 10 92 L 10 92 A 10 10 0 0 1 0 82 L 0 10 L 0 10.000000000000002 A 10 10 0 0 1 9.999999999999998 0 Z" stroke-miterlimit="10" stroke-width="2" stroke-dasharray=""/></g><g transform="matrix(1,0,0,1,45,46)"><path fill="none" stroke="#d5d5d5" id="_90B29B80-3DD5-4F5F-9914-C544C7660D57_state-inner-circle" paint-order="fill stroke markers" d=" M 25 0 A 25 25 0 1 0 24.99998750000104 0.02499999583334189 Z" stroke-miterlimit="10" stroke-width="2" stroke-dasharray=""/></g><g transform="matrix(1,0,0,1,45,46)"><path fill="#0066cc" stroke="none" id="_90B29B80-3DD5-4F5F-9914-C544C7660D57_state-inner-circle-border" paint-order="stroke fill markers" d=" M 25 0 A 25 25 0 1 0 24.99998750000104 0.02499999583334189 Z"/></g><g><g transform="matrix(0.35,0,0,0.35,33.8,34.45)"><g transform="matrix(1,0,0,1,0,0)"><path fill="#ffffff" stroke="#ffffff" id="_90B29B80-3DD5-4F5F-9914-C544C7660D57_state__9lPi__EKpD" paint-order="fill stroke markers" d=" M 0 0 M 61.99 20.83 C 62.4 21.9 62.050000000000004 23.119999999999997 61.2 23.9 L 55.790000000000006 28.83 C 55.93000000000001 29.869999999999997 56.00000000000001 30.93 56.00000000000001 32 C 56.00000000000001 33.07 55.92000000000001 34.14 55.790000000000006 35.17 L 61.2 40.09 C 62.050000000000004 40.88 62.400000000000006 42.09 61.99 43.17 C 61.440000000000005 44.660000000000004 60.78 46.09 60.03 47.46 L 59.44 48.47 C 58.61 49.85 57.69 51.15 56.68 52.379999999999995 C 55.93 53.269999999999996 54.72 53.58 53.62 53.23 L 46.66 51.01 C 44.98 52.3 43.019999999999996 53.37 41.16 54.199999999999996 L 39.599999999999994 61.339999999999996 C 39.349999999999994 62.459999999999994 38.48 63.26 37.31999999999999 63.559999999999995 C 35.599999999999994 63.849999999999994 33.81999999999999 63.99999999999999 31.89999999999999 63.99999999999999 C 30.199999999999992 63.99999999999999 28.41999999999999 63.849999999999994 26.699999999999992 63.559999999999995 C 25.549999999999994 63.26 24.679999999999993 62.459999999999994 24.429999999999993 61.339999999999996 L 22.869999999999994 54.199999999999996 C 20.889999999999993 53.37 19.039999999999992 52.3 17.369999999999994 51.01 L 10.409999999999993 53.23 C 9.309999999999993 53.58 8.089999999999993 53.269999999999996 7.3499999999999925 52.379999999999995 C 6.339999999999993 51.13999999999999 5.409999999999993 49.839999999999996 4.589999999999993 48.47 L 3.999999999999993 47.46 C 3.239999999999993 46.1 2.579999999999993 44.660000000000004 2.029999999999993 43.17 C 1.6299999999999932 42.09 1.969999999999993 40.88 2.819999999999993 40.09 L 8.229999999999993 35.17 C 8.089999999999993 34.13 8.019999999999992 33.07 8.019999999999992 32 C 8.019999999999992 30.93 8.089999999999993 29.86 8.229999999999993 28.83 L 2.819999999999993 23.9 C 1.9599999999999933 23.11 1.6199999999999932 21.91 2.029999999999993 20.83 C 2.579999999999993 19.34 3.249999999999993 17.9 3.999999999999993 16.54 L 4.579999999999993 15.53 C 5.409999999999993 14.149999999999999 6.329999999999993 12.86 7.3499999999999925 11.62 C 8.089999999999993 10.729999999999999 9.309999999999992 10.42 10.409999999999993 10.77 L 17.369999999999994 12.99 C 19.039999999999992 11.7 20.889999999999993 10.620000000000001 22.869999999999994 9.81 L 24.429999999999993 2.670000000000001 C 24.679999999999993 1.540000000000001 25.549999999999994 0.6300000000000008 26.699999999999992 0.44000000000000083 C 28.429999999999993 0.15000000000000085 30.199999999999992 8.326672684688674e-16 32.00999999999999 8.326672684688674e-16 C 33.81999999999999 8.326672684688674e-16 35.599999999999994 0.15000000000000083 37.31999999999999 0.44000000000000083 C 38.46999999999999 0.6300000000000008 39.349999999999994 1.530000000000001 39.599999999999994 2.670000000000001 L 41.16 9.81 C 43.019999999999996 10.63 44.98 11.700000000000001 46.66 12.99 L 53.62 10.77 C 54.72 10.42 55.93 10.73 56.68 11.62 C 57.69 12.85 58.62 14.149999999999999 59.44 15.53 L 60.03 16.54 C 60.78 17.9 61.44 19.34 61.99 20.83 L 61.99 20.83 Z M 0 0 M 32 42 C 37.53 42 42 37.53 42 31.89 C 42 26.25 37.53 21.89 32 21.89 C 26.47 21.89 22 26.48 22 31.89 C 22 37.3 26.48 42 32 42 Z" stroke-miterlimit="10" stroke-width="3" stroke-dasharray=""/></g></g></g><g transform="matrix(1,0,0,1,85,38.5)"><text fill="#000000" stroke="none" font-family="Open Sans" font-size="12pt" font-style="normal" font-weight="normal" text-decoration="normal" x="70.7890625" y="12" text-anchor="middle" dominant-baseline="alphabetic">Confirm Car Rental</text></g></g><g transform="matrix(1,0,0,1,475.0000000000001,893)"/><g id="_37B09D13-45CE-4BDC-91DE-DC204A4221CC" transform="matrix(1,0,0,1,475.0000000000001,1090)"><g><path fill="none" stroke="none"/></g><g transform="matrix(1,0,0,1,0,0)"><path fill="#ffffff" stroke="none" id="_37B09D13-45CE-4BDC-91DE-DC204A4221CC?shapeType=BACKGROUND" paint-order="stroke fill markers" d=" M 5 0 L 249 0 L 249 0 A 5 5 0 0 1 254 5 L 254 87 L 254 87 A 5 5 0 0 1 249 92 L 5 92 L 5 92 A 5 5 0 0 1 0 87 L 0 5 L 0 5.000000000000001 A 5 5 0 0 1 4.999999999999999 0 Z"/></g><g transform="matrix(1,0,0,1,0,0)"><path fill="none" stroke="#d5d5d5" id="_37B09D13-45CE-4BDC-91DE-DC204A4221CC?shapeType=BORDER&amp;renderType=STROKE" paint-order="fill stroke markers" d=" M 10 0 L 244 0 L 244 0 A 10 10 0 0 1 254 10 L 254 82 L 254 82 A 10 10 0 0 1 244 92 L 10 92 L 10 92 A 10 10 0 0 1 0 82 L 0 10 L 0 10.000000000000002 A 10 10 0 0 1 9.999999999999998 0 Z" stroke-miterlimit="10" stroke-width="2" stroke-dasharray=""/></g><g transform="matrix(1,0,0,1,45,46)"><path fill="none" stroke="#d5d5d5" id="_37B09D13-45CE-4BDC-91DE-DC204A4221CC_state-inner-circle" paint-order="fill stroke markers" d=" M 25 0 A 25 25 0 1 0 24.99998750000104 0.02499999583334189 Z" stroke-miterlimit="10" stroke-width="2" stroke-dasharray=""/></g><g transform="matrix(1,0,0,1,45,46)"><path fill="#0066cc" stroke="none" id="_37B09D13-45CE-4BDC-91DE-DC204A4221CC_state-inner-circle-border" paint-order="stroke fill markers" d=" M 25 0 A 25 25 0 1 0 24.99998750000104 0.02499999583334189 Z"/></g><g><g transform="matrix(0.35,0,0,0.35,33.8,34.45)"><g transform="matrix(1,0,0,1,0,0)"><path fill="#ffffff" stroke="#ffffff" id="_37B09D13-45CE-4BDC-91DE-DC204A4221CC_state__9lPi__EKpD" paint-order="fill stroke markers" d=" M 0 0 M 61.99 20.83 C 62.4 21.9 62.050000000000004 23.119999999999997 61.2 23.9 L 55.790000000000006 28.83 C 55.93000000000001 29.869999999999997 56.00000000000001 30.93 56.00000000000001 32 C 56.00000000000001 33.07 55.92000000000001 34.14 55.790000000000006 35.17 L 61.2 40.09 C 62.050000000000004 40.88 62.400000000000006 42.09 61.99 43.17 C 61.440000000000005 44.660000000000004 60.78 46.09 60.03 47.46 L 59.44 48.47 C 58.61 49.85 57.69 51.15 56.68 52.379999999999995 C 55.93 53.269999999999996 54.72 53.58 53.62 53.23 L 46.66 51.01 C 44.98 52.3 43.019999999999996 53.37 41.16 54.199999999999996 L 39.599999999999994 61.339999999999996 C 39.349999999999994 62.459999999999994 38.48 63.26 37.31999999999999 63.559999999999995 C 35.599999999999994 63.849999999999994 33.81999999999999 63.99999999999999 31.89999999999999 63.99999999999999 C 30.199999999999992 63.99999999999999 28.41999999999999 63.849999999999994 26.699999999999992 63.559999999999995 C 25.549999999999994 63.26 24.679999999999993 62.459999999999994 24.429999999999993 61.339999999999996 L 22.869999999999994 54.199999999999996 C 20.889999999999993 53.37 19.039999999999992 52.3 17.369999999999994 51.01 L 10.409999999999993 53.23 C 9.309999999999993 53.58 8.089999999999993 53.269999999999996 7.3499999999999925 52.379999999999995 C 6.339999999999993 51.13999999999999 5.409999999999993 49.839999999999996 4.589999999999993 48.47 L 3.999999999999993 47.46 C 3.239999999999993 46.1 2.579999999999993 44.660000000000004 2.029999999999993 43.17 C 1.6299999999999932 42.09 1.969999999999993 40.88 2.819999999999993 40.09 L 8.229999999999993 35.17 C 8.089999999999993 34.13 8.019999999999992 33.07 8.019999999999992 32 C 8.019999999999992 30.93 8.089999999999993 29.86 8.229999999999993 28.83 L 2.819999999999993 23.9 C 1.9599999999999933 23.11 1.6199999999999932 21.91 2.029999999999993 20.83 C 2.579999999999993 19.34 3.249999999999993 17.9 3.999999999999993 16.54 L 4.579999999999993 15.53 C 5.409999999999993 14.149999999999999 6.329999999999993 12.86 7.3499999999999925 11.62 C 8.089999999999993 10.729999999999999 9.309999999999992 10.42 10.409999999999993 10.77 L 17.369999999999994 12.99 C 19.039999999999992 11.7 20.889999999999993 10.620000000000001 22.869999999999994 9.81 L 24.429999999999993 2.670000000000001 C 24.679999999999993 1.540000000000001 25.549999999999994 0.6300000000000008 26.699999999999992 0.44000000000000083 C 28.429999999999993 0.15000000000000085 30.199999999999992 8.326672684688674e-16 32.00999999999999 8.326672684688674e-16 C 33.81999999999999 8.326672684688674e-16 35.599999999999994 0.15000000000000083 37.31999999999999 0.44000000000000083 C 38.46999999999999 0.6300000000000008 39.349999999999994 1.530000000000001 39.599999999999994 2.670000000000001 L 41.16 9.81 C 43.019999999999996 10.63 44.98 11.700000000000001 46.66 12.99 L 53.62 10.77 C 54.72 10.42 55.93 10.73 56.68 11.62 C 57.69 12.85 58.62 14.149999999999999 59.44 15.53 L 60.03 16.54 C 60.78 17.9 61.44 19.34 61.99 20.83 L 61.99 20.83 Z M 0 0 M 32 42 C 37.53 42 42 37.53 42 31.89 C 42 26.25 37.53 21.89 32 21.89 C 26.47 21.89 22 26.48 22 31.89 C 22 37.3 26.48 42 32 42 Z" stroke-miterlimit="10" stroke-width="3" stroke-dasharray=""/></g></g></g><g transform="matrix(1,0,0,1,85,38.5)"><text fill="#000000" stroke="none" font-family="Open Sans" font-size="12pt" font-style="normal" font-weight="normal" text-decoration="normal" x="64.3125" y="12" text-anchor="middle" dominant-baseline="alphabetic">Notifying success</text></g></g><g transform="matrix(1,0,0,1,475.0000000000001,1090)"/><g id="_A6CDD617-BC87-4B11-BEAC-92B89A4586FD" transform="matrix(1,0,0,1,151.0000000000001,1090)"><g><path fill="none" stroke="none"/></g><g transform="matrix(1,0,0,1,0,0)"><path fill="#ffffff" stroke="none" id="_A6CDD617-BC87-4B11-BEAC-92B89A4586FD?shapeType=BACKGROUND" paint-order="stroke fill markers" d=" M 5 0 L 249 0 L 249 0 A 5 5 0 0 1 254 5 L 254 87 L 254 87 A 5 5 0 0 1 249 92 L 5 92 L 5 92 A 5 5 0 0 1 0 87 L 0 5 L 0 5.000000000000001 A 5 5 0 0 1 4.999999999999999 0 Z"/></g><g transform="matrix(1,0,0,1,0,0)"><path fill="none" stroke="#d5d5d5" id="_A6CDD617-BC87-4B11-BEAC-92B89A4586FD?shapeType=BORDER&amp;renderType=STROKE" paint-order="fill stroke markers" d=" M 10 0 L 244 0 L 244 0 A 10 10 0 0 1 254 10 L 254 82 L 254 82 A 10 10 0 0 1 244 92 L 10 92 L 10 92 A 10 10 0 0 1 0 82 L 0 10 L 0 10.000000000000002 A 10 10 0 0 1 9.999999999999998 0 Z" stroke-miterlimit="10" stroke-width="2" stroke-dasharray=""/></g><g transform="matrix(1,0,0,1,45,46)"><path fill="none" stroke="#d5d5d5" id="_A6CDD617-BC87-4B11-BEAC-92B89A4586FD_state-inner-circle" paint-order="fill stroke markers" d=" M 25 0 A 25 25 0 1 0 24.99998750000104 0.02499999583334189 Z" stroke-miterlimit="10" stroke-width="2" stroke-dasharray=""/></g><g transform="matrix(1,0,0,1,45,46)"><path fill="#0066cc" stroke="none" id="_A6CDD617-BC87-4B11-BEAC-92B89A4586FD_state-inner-circle-border" paint-order="stroke fill markers" d=" M 25 0 A 25 25 0 1 0 24.99998750000104 0.02499999583334189 Z"/></g><g><g transform="matrix(0.35,0,0,0.35,33.8,34.45)"><g transform="matrix(1,0,0,1,0,0)"><path fill="#ffffff" stroke="#ffffff" id="_A6CDD617-BC87-4B11-BEAC-92B89A4586FD_state__9lPi__EKpD" paint-order="fill stroke markers" d=" M 0 0 M 61.99 20.83 C 62.4 21.9 62.050000000000004 23.119999999999997 61.2 23.9 L 55.790000000000006 28.83 C 55.93000000000001 29.869999999999997 56.00000000000001 30.93 56.00000000000001 32 C 56.00000000000001 33.07 55.92000000000001 34.14 55.790000000000006 35.17 L 61.2 40.09 C 62.050000000000004 40.88 62.400000000000006 42.09 61.99 43.17 C 61.440000000000005 44.660000000000004 60.78 46.09 60.03 47.46 L 59.44 48.47 C 58.61 49.85 57.69 51.15 56.68 52.379999999999995 C 55.93 53.269999999999996 54.72 53.58 53.62 53.23 L 46.66 51.01 C 44.98 52.3 43.019999999999996 53.37 41.16 54.199999999999996 L 39.599999999999994 61.339999999999996 C 39.349999999999994 62.459999999999994 38.48 63.26 37.31999999999999 63.559999999999995 C 35.599999999999994 63.849999999999994 33.81999999999999 63.99999999999999 31.89999999999999 63.99999999999999 C 30.199999999999992 63.99999999999999 28.41999999999999 63.849999999999994 26.699999999999992 63.559999999999995 C 25.549999999999994 63.26 24.679999999999993 62.459999999999994 24.429999999999993 61.339999999999996 L 22.869999999999994 54.199999999999996 C 20.889999999999993 53.37 19.039999999999992 52.3 17.369999999999994 51.01 L 10.409999999999993 53.23 C 9.309999999999993 53.58 8.089999999999993 53.269999999999996 7.3499999999999925 52.379999999999995 C 6.339999999999993 51.13999999999999 5.409999999999993 49.839999999999996 4.589999999999993 48.47 L 3.999999999999993 47.46 C 3.239999999999993 46.1 2.579999999999993 44.660000000000004 2.029999999999993 43.17 C 1.6299999999999932 42.09 1.969999999999993 40.88 2.819999999999993 40.09 L 8.229999999999993 35.17 C 8.089999999999993 34.13 8.019999999999992 33.07 8.019999999999992 32 C 8.019999999999992 30.93 8.089999999999993 29.86 8.229999999999993 28.83 L 2.819999999999993 23.9 C 1.9599999999999933 23.11 1.6199999999999932 21.91 2.029999999999993 20.83 C 2.579999999999993 19.34 3.249999999999993 17.9 3.999999999999993 16.54 L 4.579999999999993 15.53 C 5.409999999999993 14.149999999999999 6.329999999999993 12.86 7.3499999999999925 11.62 C 8.089999999999993 10.729999999999999 9.309999999999992 10.42 10.409999999999993 10.77 L 17.369999999999994 12.99 C 19.039999999999992 11.7 20.889999999999993 10.620000000000001 22.869999999999994 9.81 L 24.429999999999993 2.670000000000001 C 24.679999999999993 1.540000000000001 25.549999999999994 0.6300000000000008 26.699999999999992 0.44000000000000083 C 28.429999999999993 0.15000000000000085 30.199999999999992 8.326672684688674e-16 32.00999999999999 8.326672684688674e-16 C 33.81999999999999 8.326672684688674e-16 35.599999999999994 0.15000000000000083 37.31999999999999 0.44000000000000083 C 38.46999999999999 0.6300000000000008 39.349999999999994 1.530000000000001 39.599999999999994 2.670000000000001 L 41.16 9.81 C 43.019999999999996 10.63 44.98 11.700000000000001 46.66 12.99 L 53.62 10.77 C 54.72 10.42 55.93 10.73 56.68 11.62 C 57.69 12.85 58.62 14.149999999999999 59.44 15.53 L 60.03 16.54 C 60.78 17.9 61.44 19.34 61.99 20.83 L 61.99 20.83 Z M 0 0 M 32 42 C 37.53 42 42 37.53 42 31.89 C 42 26.25 37.53 21.89 32 21.89 C 26.47 21.89 22 26.48 22 31.89 C 22 37.3 26.48 42 32 42 Z" stroke-miterlimit="10" stroke-width="3" stroke-dasharray=""/></g></g></g><g transform="matrix(1,0,0,1,85,38.5)"><text fill="#000000" stroke="none" font-family="Open Sans" font-size="12pt" font-style="normal" font-weight="normal" text-decoration="normal" x="61.90625" y="12" text-anchor="middle" dominant-baseline="alphabetic">Refund Payment</text></g></g><g transform="matrix(1,0,0,1,151.0000000000001,1090)"/><g id="_4D2336F4-190F-4175-897A-4BFC898B0703" transform="matrix(1,0,0,1,70,1267)"><g><path fill="none" stroke="none"/></g><g transform="matrix(1,0,0,1,0,0)"><path fill="#ffffff" stroke="none" id="_4D2336F4-190F-4175-897A-4BFC898B0703?shapeType=BACKGROUND" paint-order="stroke fill markers" d=" M 5 0 L 249 0 L 249 0 A 5 5 0 0 1 254 5 L 254 87 L 254 87 A 5 5 0 0 1 249 92 L 5 92 L 5 92 A 5 5 0 0 1 0 87 L 0 5 L 0 5.000000000000001 A 5 5 0 0 1 4.999999999999999 0 Z"/></g><g transform="matrix(1,0,0,1,0,0)"><path fill="none" stroke="#d5d5d5" id="_4D2336F4-190F-4175-897A-4BFC898B0703?shapeType=BORDER&amp;renderType=STROKE" paint-order="fill stroke markers" d=" M 10 0 L 244 0 L 244 0 A 10 10 0 0 1 254 10 L 254 82 L 254 82 A 10 10 0 0 1 244 92 L 10 92 L 10 92 A 10 10 0 0 1 0 82 L 0 10 L 0 10.000000000000002 A 10 10 0 0 1 9.999999999999998 0 Z" stroke-miterlimit="10" stroke-width="2" stroke-dasharray=""/></g><g transform="matrix(1,0,0,1,45,46)"><path fill="none" stroke="#d5d5d5" id="_4D2336F4-190F-4175-897A-4BFC898B0703_state-inner-circle" paint-order="fill stroke markers" d=" M 25 0 A 25 25 0 1 0 24.99998750000104 0.02499999583334189 Z" stroke-miterlimit="10" stroke-width="2" stroke-dasharray=""/></g><g transform="matrix(1,0,0,1,45,46)"><path fill="#0066cc" stroke="none" id="_4D2336F4-190F-4175-897A-4BFC898B0703_state-inner-circle-border" paint-order="stroke fill markers" d=" M 25 0 A 25 25 0 1 0 24.99998750000104 0.02499999583334189 Z"/></g><g><g transform="matrix(0.35,0,0,0.35,33.8,34.45)"><g transform="matrix(1,0,0,1,0,0)"><path fill="#ffffff" stroke="#ffffff" id="_4D2336F4-190F-4175-897A-4BFC898B0703_state__9lPi__EKpD" paint-order="fill stroke markers" d=" M 0 0 M 61.99 20.83 C 62.4 21.9 62.050000000000004 23.119999999999997 61.2 23.9 L 55.790000000000006 28.83 C 55.93000000000001 29.869999999999997 56.00000000000001 30.93 56.00000000000001 32 C 56.00000000000001 33.07 55.92000000000001 34.14 55.790000000000006 35.17 L 61.2 40.09 C 62.050000000000004 40.88 62.400000000000006 42.09 61.99 43.17 C 61.440000000000005 44.660000000000004 60.78 46.09 60.03 47.46 L 59.44 48.47 C 58.61 49.85 57.69 51.15 56.68 52.379999999999995 C 55.93 53.269999999999996 54.72 53.58 53.62 53.23 L 46.66 51.01 C 44.98 52.3 43.019999999999996 53.37 41.16 54.199999999999996 L 39.599999999999994 61.339999999999996 C 39.349999999999994 62.459999999999994 38.48 63.26 37.31999999999999 63.559999999999995 C 35.599999999999994 63.849999999999994 33.81999999999999 63.99999999999999 31.89999999999999 63.99999999999999 C 30.199999999999992 63.99999999999999 28.41999999999999 63.849999999999994 26.699999999999992 63.559999999999995 C 25.549999999999994 63.26 24.679999999999993 62.459999999999994 24.429999999999993 61.339999999999996 L 22.869999999999994 54.199999999999996 C 20.889999999999993 53.37 19.039999999999992 52.3 17.369999999999994 51.01 L 10.409999999999993 53.23 C 9.309999999999993 53.58 8.089999999999993 53.269999999999996 7.3499999999999925 52.379999999999995 C 6.339999999999993 51.13999999999999 5.409999999999993 49.839999999999996 4.589999999999993 48.47 L 3.999999999999993 47.46 C 3.239999999999993 46.1 2.579999999999993 44.660000000000004 2.029999999999993 43.17 C 1.6299999999999932 42.09 1.969999999999993 40.88 2.819999999999993 40.09 L 8.229999999999993 35.17 C 8.089999999999993 34.13 8.019999999999992 33.07 8.019999999999992 32 C 8.019999999999992 30.93 8.089999999999993 29.86 8.229999999999993 28.83 L 2.819999999999993 23.9 C 1.9599999999999933 23.11 1.6199999999999932 21.91 2.029999999999993 20.83 C 2.579999999999993 19.34 3.249999999999993 17.9 3.999999999999993 16.54 L 4.579999999999993 15.53 C 5.409999999999993 14.149999999999999 6.329999999999993 12.86 7.3499999999999925 11.62 C 8.089999999999993 10.729999999999999 9.309999999999992 10.42 10.409999999999993 10.77 L 17.369999999999994 12.99 C 19.039999999999992 11.7 20.889999999999993 10.620000000000001 22.869999999999994 9.81 L 24.429999999999993 2.670000000000001 C 24.679999999999993 1.540000000000001 25.549999999999994 0.6300000000000008 26.699999999999992 0.44000000000000083 C 28.429999999999993 0.15000000000000085 30.199999999999992 8.326672684688674e-16 32.00999999999999 8.326672684688674e-16 C 33.81999999999999 8.326672684688674e-16 35.599999999999994 0.15000000000000083 37.31999999999999 0.44000000000000083 C 38.46999999999999 0.6300000000000008 39.349999999999994 1.530000000000001 39.599999999999994 2.670000000000001 L 41.16 9.81 C 43.019999999999996 10.63 44.98 11.700000000000001 46.66 12.99 L 53.62 10.77 C 54.72 10.42 55.93 10.73 56.68 11.62 C 57.69 12.85 58.62 14.149999999999999 59.44 15.53 L 60.03 16.54 C 60.78 17.9 61.44 19.34 61.99 20.83 L 61.99 20.83 Z M 0 0 M 32 42 C 37.53 42 42 37.53 42 31.89 C 42 26.25 37.53 21.89 32 21.89 C 26.47 21.89 22 26.48 22 31.89 C 22 37.3 26.48 42 32 42 Z" stroke-miterlimit="10" stroke-width="3" stroke-dasharray=""/></g></g></g><g transform="matrix(1,0,0,1,85,31)"><text fill="#000000" stroke="none" font-family="Open Sans" font-size="12pt" font-style="normal" font-weight="normal" text-decoration="normal" x="44.05078125" y="12" text-anchor="middle" dominant-baseline="alphabetic">Cancel Car  </text><text fill="#000000" stroke="none" font-family="Open Sans" font-size="12pt" font-style="normal" font-weight="normal" text-decoration="normal" x="44.05078125" y="27" text-anchor="middle" dominant-baseline="alphabetic">Reservation</text></g></g><g transform="matrix(1,0,0,1,70,1267)"/><g id="_681087B6-C0B1-45CC-A8FD-92F4F869DBC6" transform="matrix(1,0,0,1,637.0000000000002,1444)"><g><path fill="none" stroke="none"/></g><g transform="matrix(1,0,0,1,0,0)"><path fill="#ffffff" stroke="none" id="_681087B6-C0B1-45CC-A8FD-92F4F869DBC6?shapeType=BACKGROUND" paint-order="stroke fill markers" d=" M 5 0 L 249 0 L 249 0 A 5 5 0 0 1 254 5 L 254 87 L 254 87 A 5 5 0 0 1 249 92 L 5 92 L 5 92 A 5 5 0 0 1 0 87 L 0 5 L 0 5.000000000000001 A 5 5 0 0 1 4.999999999999999 0 Z"/></g><g transform="matrix(1,0,0,1,0,0)"><path fill="none" stroke="#d5d5d5" id="_681087B6-C0B1-45CC-A8FD-92F4F869DBC6?shapeType=BORDER&amp;renderType=STROKE" paint-order="fill stroke markers" d=" M 10 0 L 244 0 L 244 0 A 10 10 0 0 1 254 10 L 254 82 L 254 82 A 10 10 0 0 1 244 92 L 10 92 L 10 92 A 10 10 0 0 1 0 82 L 0 10 L 0 10.000000000000002 A 10 10 0 0 1 9.999999999999998 0 Z" stroke-miterlimit="10" stroke-width="2" stroke-dasharray=""/></g><g transform="matrix(1,0,0,1,45,46)"><path fill="none" stroke="#d5d5d5" id="_681087B6-C0B1-45CC-A8FD-92F4F869DBC6_state-inner-circle" paint-order="fill stroke markers" d=" M 25 0 A 25 25 0 1 0 24.99998750000104 0.02499999583334189 Z" stroke-miterlimit="10" stroke-width="2" stroke-dasharray=""/></g><g transform="matrix(1,0,0,1,45,46)"><path fill="#0066cc" stroke="none" id="_681087B6-C0B1-45CC-A8FD-92F4F869DBC6_state-inner-circle-border" paint-order="stroke fill markers" d=" M 25 0 A 25 25 0 1 0 24.99998750000104 0.02499999583334189 Z"/></g><g><g transform="matrix(0.35,0,0,0.35,33.8,34.45)"><g transform="matrix(1,0,0,1,0,0)"><path fill="#ffffff" stroke="#ffffff" id="_681087B6-C0B1-45CC-A8FD-92F4F869DBC6_state__9lPi__EKpD" paint-order="fill stroke markers" d=" M 0 0 M 61.99 20.83 C 62.4 21.9 62.050000000000004 23.119999999999997 61.2 23.9 L 55.790000000000006 28.83 C 55.93000000000001 29.869999999999997 56.00000000000001 30.93 56.00000000000001 32 C 56.00000000000001 33.07 55.92000000000001 34.14 55.790000000000006 35.17 L 61.2 40.09 C 62.050000000000004 40.88 62.400000000000006 42.09 61.99 43.17 C 61.440000000000005 44.660000000000004 60.78 46.09 60.03 47.46 L 59.44 48.47 C 58.61 49.85 57.69 51.15 56.68 52.379999999999995 C 55.93 53.269999999999996 54.72 53.58 53.62 53.23 L 46.66 51.01 C 44.98 52.3 43.019999999999996 53.37 41.16 54.199999999999996 L 39.599999999999994 61.339999999999996 C 39.349999999999994 62.459999999999994 38.48 63.26 37.31999999999999 63.559999999999995 C 35.599999999999994 63.849999999999994 33.81999999999999 63.99999999999999 31.89999999999999 63.99999999999999 C 30.199999999999992 63.99999999999999 28.41999999999999 63.849999999999994 26.699999999999992 63.559999999999995 C 25.549999999999994 63.26 24.679999999999993 62.459999999999994 24.429999999999993 61.339999999999996 L 22.869999999999994 54.199999999999996 C 20.889999999999993 53.37 19.039999999999992 52.3 17.369999999999994 51.01 L 10.409999999999993 53.23 C 9.309999999999993 53.58 8.089999999999993 53.269999999999996 7.3499999999999925 52.379999999999995 C 6.339999999999993 51.13999999999999 5.409999999999993 49.839999999999996 4.589999999999993 48.47 L 3.999999999999993 47.46 C 3.239999999999993 46.1 2.579999999999993 44.660000000000004 2.029999999999993 43.17 C 1.6299999999999932 42.09 1.969999999999993 40.88 2.819999999999993 40.09 L 8.229999999999993 35.17 C 8.089999999999993 34.13 8.019999999999992 33.07 8.019999999999992 32 C 8.019999999999992 30.93 8.089999999999993 29.86 8.229999999999993 28.83 L 2.819999999999993 23.9 C 1.9599999999999933 23.11 1.6199999999999932 21.91 2.029999999999993 20.83 C 2.579999999999993 19.34 3.249999999999993 17.9 3.999999999999993 16.54 L 4.579999999999993 15.53 C 5.409999999999993 14.149999999999999 6.329999999999993 12.86 7.3499999999999925 11.62 C 8.089999999999993 10.729999999999999 9.309999999999992 10.42 10.409999999999993 10.77 L 17.369999999999994 12.99 C 19.039999999999992 11.7 20.889999999999993 10.620000000000001 22.869999999999994 9.81 L 24.429999999999993 2.670000000000001 C 24.679999999999993 1.540000000000001 25.549999999999994 0.6300000000000008 26.699999999999992 0.44000000000000083 C 28.429999999999993 0.15000000000000085 30.199999999999992 8.326672684688674e-16 32.00999999999999 8.326672684688674e-16 C 33.81999999999999 8.326672684688674e-16 35.599999999999994 0.15000000000000083 37.31999999999999 0.44000000000000083 C 38.46999999999999 0.6300000000000008 39.349999999999994 1.530000000000001 39.599999999999994 2.670000000000001 L 41.16 9.81 C 43.019999999999996 10.63 44.98 11.700000000000001 46.66 12.99 L 53.62 10.77 C 54.72 10.42 55.93 10.73 56.68 11.62 C 57.69 12.85 58.62 14.149999999999999 59.44 15.53 L 60.03 16.54 C 60.78 17.9 61.44 19.34 61.99 20.83 L 61.99 20.83 Z M 0 0 M 32 42 C 37.53 42 42 37.53 42 31.89 C 42 26.25 37.53 21.89 32 21.89 C 26.47 21.89 22 26.48 22 31.89 C 22 37.3 26.48 42 32 42 Z" stroke-miterlimit="10" stroke-width="3" stroke-dasharray=""/></g></g></g><g transform="matrix(1,0,0,1,85,31)"><text fill="#000000" stroke="none" font-family="Open Sans" font-size="12pt" font-style="normal" font-weight="normal" text-decoration="normal" x="49.17578125" y="12" text-anchor="middle" dominant-baseline="alphabetic">Cancel Flight </text><text fill="#000000" stroke="none" font-family="Open Sans" font-size="12pt" font-style="normal" font-weight="normal" text-decoration="normal" x="49.17578125" y="27" text-anchor="middle" dominant-baseline="alphabetic"> Reservation </text></g></g><g transform="matrix(1,0,0,1,637.0000000000002,1444)"/><g id="_318E8E23-34E5-4E57-AA91-B610C44D7DDD" transform="matrix(1,0,0,1,800.0000000000002,1090)"><g><path fill="none" stroke="none"/></g><g transform="matrix(1,0,0,1,0,0)"><path fill="#ffffff" stroke="none" id="_318E8E23-34E5-4E57-AA91-B610C44D7DDD?shapeType=BACKGROUND" paint-order="stroke fill markers" d=" M 5 0 L 249 0 L 249 0 A 5 5 0 0 1 254 5 L 254 87 L 254 87 A 5 5 0 0 1 249 92 L 5 92 L 5 92 A 5 5 0 0 1 0 87 L 0 5 L 0 5.000000000000001 A 5 5 0 0 1 4.999999999999999 0 Z"/></g><g transform="matrix(1,0,0,1,0,0)"><path fill="none" stroke="#d5d5d5" id="_318E8E23-34E5-4E57-AA91-B610C44D7DDD?shapeType=BORDER&amp;renderType=STROKE" paint-order="fill stroke markers" d=" M 10 0 L 244 0 L 244 0 A 10 10 0 0 1 254 10 L 254 82 L 254 82 A 10 10 0 0 1 244 92 L 10 92 L 10 92 A 10 10 0 0 1 0 82 L 0 10 L 0 10.000000000000002 A 10 10 0 0 1 9.999999999999998 0 Z" stroke-miterlimit="10" stroke-width="2" stroke-dasharray=""/></g><g transform="matrix(1,0,0,1,45,46)"><path fill="none" stroke="#d5d5d5" id="_318E8E23-34E5-4E57-AA91-B610C44D7DDD_state-inner-circle" paint-order="fill stroke markers" d=" M 25 0 A 25 25 0 1 0 24.99998750000104 0.02499999583334189 Z" stroke-miterlimit="10" stroke-width="2" stroke-dasharray=""/></g><g transform="matrix(1,0,0,1,45,46)"><path fill="#0066cc" stroke="none" id="_318E8E23-34E5-4E57-AA91-B610C44D7DDD_state-inner-circle-border" paint-order="stroke fill markers" d=" M 25 0 A 25 25 0 1 0 24.99998750000104 0.02499999583334189 Z"/></g><g><g transform="matrix(0.35,0,0,0.35,33.8,34.45)"><g transform="matrix(1,0,0,1,0,0)"><path fill="#ffffff" stroke="#ffffff" id="_318E8E23-34E5-4E57-AA91-B610C44D7DDD_state__9lPi__EKpD" paint-order="fill stroke markers" d=" M 0 0 M 61.99 20.83 C 62.4 21.9 62.050000000000004 23.119999999999997 61.2 23.9 L 55.790000000000006 28.83 C 55.93000000000001 29.869999999999997 56.00000000000001 30.93 56.00000000000001 32 C 56.00000000000001 33.07 55.92000000000001 34.14 55.790000000000006 35.17 L 61.2 40.09 C 62.050000000000004 40.88 62.400000000000006 42.09 61.99 43.17 C 61.440000000000005 44.660000000000004 60.78 46.09 60.03 47.46 L 59.44 48.47 C 58.61 49.85 57.69 51.15 56.68 52.379999999999995 C 55.93 53.269999999999996 54.72 53.58 53.62 53.23 L 46.66 51.01 C 44.98 52.3 43.019999999999996 53.37 41.16 54.199999999999996 L 39.599999999999994 61.339999999999996 C 39.349999999999994 62.459999999999994 38.48 63.26 37.31999999999999 63.559999999999995 C 35.599999999999994 63.849999999999994 33.81999999999999 63.99999999999999 31.89999999999999 63.99999999999999 C 30.199999999999992 63.99999999999999 28.41999999999999 63.849999999999994 26.699999999999992 63.559999999999995 C 25.549999999999994 63.26 24.679999999999993 62.459999999999994 24.429999999999993 61.339999999999996 L 22.869999999999994 54.199999999999996 C 20.889999999999993 53.37 19.039999999999992 52.3 17.369999999999994 51.01 L 10.409999999999993 53.23 C 9.309999999999993 53.58 8.089999999999993 53.269999999999996 7.3499999999999925 52.379999999999995 C 6.339999999999993 51.13999999999999 5.409999999999993 49.839999999999996 4.589999999999993 48.47 L 3.999999999999993 47.46 C 3.239999999999993 46.1 2.579999999999993 44.660000000000004 2.029999999999993 43.17 C 1.6299999999999932 42.09 1.969999999999993 40.88 2.819999999999993 40.09 L 8.229999999999993 35.17 C 8.089999999999993 34.13 8.019999999999992 33.07 8.019999999999992 32 C 8.019999999999992 30.93 8.089999999999993 29.86 8.229999999999993 28.83 L 2.819999999999993 23.9 C 1.9599999999999933 23.11 1.6199999999999932 21.91 2.029999999999993 20.83 C 2.579999999999993 19.34 3.249999999999993 17.9 3.999999999999993 16.54 L 4.579999999999993 15.53 C 5.409999999999993 14.149999999999999 6.329999999999993 12.86 7.3499999999999925 11.62 C 8.089999999999993 10.729999999999999 9.309999999999992 10.42 10.409999999999993 10.77 L 17.369999999999994 12.99 C 19.039999999999992 11.7 20.889999999999993 10.620000000000001 22.869999999999994 9.81 L 24.429999999999993 2.670000000000001 C 24.679999999999993 1.540000000000001 25.549999999999994 0.6300000000000008 26.699999999999992 0.44000000000000083 C 28.429999999999993 0.15000000000000085 30.199999999999992 8.326672684688674e-16 32.00999999999999 8.326672684688674e-16 C 33.81999999999999 8.326672684688674e-16 35.599999999999994 0.15000000000000083 37.31999999999999 0.44000000000000083 C 38.46999999999999 0.6300000000000008 39.349999999999994 1.530000000000001 39.599999999999994 2.670000000000001 L 41.16 9.81 C 43.019999999999996 10.63 44.98 11.700000000000001 46.66 12.99 L 53.62 10.77 C 54.72 10.42 55.93 10.73 56.68 11.62 C 57.69 12.85 58.62 14.149999999999999 59.44 15.53 L 60.03 16.54 C 60.78 17.9 61.44 19.34 61.99 20.83 L 61.99 20.83 Z M 0 0 M 32 42 C 37.53 42 42 37.53 42 31.89 C 42 26.25 37.53 21.89 32 21.89 C 26.47 21.89 22 26.48 22 31.89 C 22 37.3 26.48 42 32 42 Z" stroke-miterlimit="10" stroke-width="3" stroke-dasharray=""/></g></g></g><g transform="matrix(1,0,0,1,85,38.5)"><text fill="#000000" stroke="none" font-family="Open Sans" font-size="12pt" font-style="normal" font-weight="normal" text-decoration="normal" x="45.390625" y="12" text-anchor="middle" dominant-baseline="alphabetic">ServiceError</text></g></g><g transform="matrix(1,0,0,1,800.0000000000002,1090)"/><g id="_CA2FDC3B-5865-4C8A-9008-B483991AA84F" transform="matrix(1,0,0,1,637.0000000000002,1621)"><g><path fill="none" stroke="none"/></g><g transform="matrix(1,0,0,1,0,0)"><path fill="#ffffff" stroke="none" id="_CA2FDC3B-5865-4C8A-9008-B483991AA84F?shapeType=BACKGROUND" paint-order="stroke fill markers" d=" M 5 0 L 249 0 L 249 0 A 5 5 0 0 1 254 5 L 254 87 L 254 87 A 5 5 0 0 1 249 92 L 5 92 L 5 92 A 5 5 0 0 1 0 87 L 0 5 L 0 5.000000000000001 A 5 5 0 0 1 4.999999999999999 0 Z"/></g><g transform="matrix(1,0,0,1,0,0)"><path fill="none" stroke="#d5d5d5" id="_CA2FDC3B-5865-4C8A-9008-B483991AA84F?shapeType=BORDER&amp;renderType=STROKE" paint-order="fill stroke markers" d=" M 10 0 L 244 0 L 244 0 A 10 10 0 0 1 254 10 L 254 82 L 254 82 A 10 10 0 0 1 244 92 L 10 92 L 10 92 A 10 10 0 0 1 0 82 L 0 10 L 0 10.000000000000002 A 10 10 0 0 1 9.999999999999998 0 Z" stroke-miterlimit="10" stroke-width="2" stroke-dasharray=""/></g><g transform="matrix(1,0,0,1,45,46)"><path fill="none" stroke="#d5d5d5" id="_CA2FDC3B-5865-4C8A-9008-B483991AA84F_state-inner-circle" paint-order="fill stroke markers" d=" M 25 0 A 25 25 0 1 0 24.99998750000104 0.02499999583334189 Z" stroke-miterlimit="10" stroke-width="2" stroke-dasharray=""/></g><g transform="matrix(1,0,0,1,45,46)"><path fill="#0066cc" stroke="none" id="_CA2FDC3B-5865-4C8A-9008-B483991AA84F_state-inner-circle-border" paint-order="stroke fill markers" d=" M 25 0 A 25 25 0 1 0 24.99998750000104 0.02499999583334189 Z"/></g><g><g transform="matrix(0.35,0,0,0.35,33.8,34.45)"><g transform="matrix(1,0,0,1,0,0)"><path fill="#ffffff" stroke="#ffffff" id="_CA2FDC3B-5865-4C8A-9008-B483991AA84F_state__9lPi__EKpD" paint-order="fill stroke markers" d=" M 0 0 M 61.99 20.83 C 62.4 21.9 62.050000000000004 23.119999999999997 61.2 23.9 L 55.790000000000006 28.83 C 55.93000000000001 29.869999999999997 56.00000000000001 30.93 56.00000000000001 32 C 56.00000000000001 33.07 55.92000000000001 34.14 55.790000000000006 35.17 L 61.2 40.09 C 62.050000000000004 40.88 62.400000000000006 42.09 61.99 43.17 C 61.440000000000005 44.660000000000004 60.78 46.09 60.03 47.46 L 59.44 48.47 C 58.61 49.85 57.69 51.15 56.68 52.379999999999995 C 55.93 53.269999999999996 54.72 53.58 53.62 53.23 L 46.66 51.01 C 44.98 52.3 43.019999999999996 53.37 41.16 54.199999999999996 L 39.599999999999994 61.339999999999996 C 39.349999999999994 62.459999999999994 38.48 63.26 37.31999999999999 63.559999999999995 C 35.599999999999994 63.849999999999994 33.81999999999999 63.99999999999999 31.89999999999999 63.99999999999999 C 30.199999999999992 63.99999999999999 28.41999999999999 63.849999999999994 26.699999999999992 63.559999999999995 C 25.549999999999994 63.26 24.679999999999993 62.459999999999994 24.429999999999993 61.339999999999996 L 22.869999999999994 54.199999999999996 C 20.889999999999993 53.37 19.039999999999992 52.3 17.369999999999994 51.01 L 10.409999999999993 53.23 C 9.309999999999993 53.58 8.089999999999993 53.269999999999996 7.3499999999999925 52.379999999999995 C 6.339999999999993 51.13999999999999 5.409999999999993 49.839999999999996 4.589999999999993 48.47 L 3.999999999999993 47.46 C 3.239999999999993 46.1 2.579999999999993 44.660000000000004 2.029999999999993 43.17 C 1.6299999999999932 42.09 1.969999999999993 40.88 2.819999999999993 40.09 L 8.229999999999993 35.17 C 8.089999999999993 34.13 8.019999999999992 33.07 8.019999999999992 32 C 8.019999999999992 30.93 8.089999999999993 29.86 8.229999999999993 28.83 L 2.819999999999993 23.9 C 1.9599999999999933 23.11 1.6199999999999932 21.91 2.029999999999993 20.83 C 2.579999999999993 19.34 3.249999999999993 17.9 3.999999999999993 16.54 L 4.579999999999993 15.53 C 5.409999999999993 14.149999999999999 6.329999999999993 12.86 7.3499999999999925 11.62 C 8.089999999999993 10.729999999999999 9.309999999999992 10.42 10.409999999999993 10.77 L 17.369999999999994 12.99 C 19.039999999999992 11.7 20.889999999999993 10.620000000000001 22.869999999999994 9.81 L 24.429999999999993 2.670000000000001 C 24.679999999999993 1.540000000000001 25.549999999999994 0.6300000000000008 26.699999999999992 0.44000000000000083 C 28.429999999999993 0.15000000000000085 30.199999999999992 8.326672684688674e-16 32.00999999999999 8.326672684688674e-16 C 33.81999999999999 8.326672684688674e-16 35.599999999999994 0.15000000000000083 37.31999999999999 0.44000000000000083 C 38.46999999999999 0.6300000000000008 39.349999999999994 1.530000000000001 39.599999999999994 2.670000000000001 L 41.16 9.81 C 43.019999999999996 10.63 44.98 11.700000000000001 46.66 12.99 L 53.62 10.77 C 54.72 10.42 55.93 10.73 56.68 11.62 C 57.69 12.85 58.62 14.149999999999999 59.44 15.53 L 60.03 16.54 C 60.78 17.9 61.44 19.34 61.99 20.83 L 61.99 20.83 Z M 0 0 M 32 42 C 37.53 42 42 37.53 42 31.89 C 42 26.25 37.53 21.89 32 21.89 C 26.47 21.89 22 26.48 22 31.89 C 22 37.3 26.48 42 32 42 Z" stroke-miterlimit="10" stroke-width="3" stroke-dasharray=""/></g></g></g><g transform="matrix(1,0,0,1,85,38.5)"><text fill="#000000" stroke="none" font-family="Open Sans" font-size="12pt" font-style="normal" font-weight="normal" text-decoration="normal" x="60.9765625" y="12" text-anchor="middle" dominant-baseline="alphabetic">Notifying Failure</text></g></g><g transform="matrix(1,0,0,1,637.0000000000002,1621)"/><g id="startEdge"><g><path fill="none" stroke="#757575" paint-order="fill stroke markers" d=" M 1051.3333333333335 100 L 1051.3333333333335 170" stroke-miterlimit="10" stroke-width="1.5" stroke-dasharray=""/></g><g transform="matrix(1,0,0,1,1051.3333333333335,100)"/><g transform="matrix(-1,1.2246467991473532e-16,-1.2246467991473532e-16,-1,1056.3333333333335,185)"><path fill="#757575" stroke="#757575" paint-order="fill stroke markers" d=" M 10 15 L 0 15 L 5 0 Z" stroke-miterlimit="10" stroke-width="1.5" stroke-dasharray=""/></g><g transform="matrix(1,0,0,1,1061.3333333333335,142.5)"/></g><g id="_A94B1DC9-7969-4F42-A33F-1F2004CD3636"><g><path fill="none" stroke="#757575" paint-order="fill stroke markers" d=" M 1015.2716049382718 277 L 987.8333333333335 312 L 602.0000000000001 312 L 602.0000000000001 347" stroke-miterlimit="10" stroke-width="1.5" stroke-dasharray=""/></g><g transform="matrix(1,0,0,1,1015.2716049382718,277)"/><g transform="matrix(-1,1.2246467991473532e-16,-1.2246467991473532e-16,-1,607.0000000000001,362)"><path fill="#757575" stroke="#757575" paint-order="fill stroke markers" d=" M 10 15 L 0 15 L 5 0 Z" stroke-miterlimit="10" stroke-width="1.5" stroke-dasharray=""/></g><g transform="matrix(1,0,0,1,995.7032549708172,288.33037007431835)"/></g><g id="_1E801C98-49F7-40BB-835B-D568917538F2"><g><path fill="none" stroke="#757575" paint-order="fill stroke markers" d=" M 602.0000000000001 454 L 602.0000000000001 524" stroke-miterlimit="10" stroke-width="1.5" stroke-dasharray=""/></g><g transform="matrix(1,0,0,1,602.0000000000001,454)"/><g transform="matrix(-1,1.2246467991473532e-16,-1.2246467991473532e-16,-1,607.0000000000001,539)"><path fill="#757575" stroke="#757575" paint-order="fill stroke markers" d=" M 10 15 L 0 15 L 5 0 Z" stroke-miterlimit="10" stroke-width="1.5" stroke-dasharray=""/></g><g transform="matrix(1,0,0,1,612.0000000000001,496.5)"/></g><g id="_2E581BA8-C90B-4708-9DF2-66F76AC55D31"><g><path fill="none" stroke="#757575" paint-order="fill stroke markers" d=" M 602.0000000000001 631 L 602.0000000000001 701" stroke-miterlimit="10" stroke-width="1.5" stroke-dasharray=""/></g><g transform="matrix(1,0,0,1,602.0000000000001,631)"/><g transform="matrix(-1,1.2246467991473532e-16,-1.2246467991473532e-16,-1,607.0000000000001,716)"><path fill="#757575" stroke="#757575" paint-order="fill stroke markers" d=" M 10 15 L 0 15 L 5 0 Z" stroke-miterlimit="10" stroke-width="1.5" stroke-dasharray=""/></g><g transform="matrix(1,0,0,1,612.0000000000001,673.5)"/></g><g id="_85381E3A-A072-4D5F-87D9-A28408D520A9"><g><path fill="none" stroke="#757575" paint-order="fill stroke markers" d=" M 602.0000000000001 808 L 602.0000000000001 878" stroke-miterlimit="10" stroke-width="1.5" stroke-dasharray=""/></g><g transform="matrix(1,0,0,1,602.0000000000001,808)"/><g transform="matrix(-1,1.2246467991473532e-16,-1.2246467991473532e-16,-1,607.0000000000001,893)"><path fill="#757575" stroke="#757575" paint-order="fill stroke markers" d=" M 10 15 L 0 15 L 5 0 Z" stroke-miterlimit="10" stroke-width="1.5" stroke-dasharray=""/></g><g transform="matrix(1,0,0,1,612.0000000000001,850.5)"/></g><g id="_D0293637-1C04-474C-B747-564CF82AE5A4"><g><path fill="none" stroke="#757575" paint-order="fill stroke markers" d=" M 602.0000000000001 985 L 602.0000000000001 1075" stroke-miterlimit="10" stroke-width="1.5" stroke-dasharray=""/></g><g transform="matrix(1,0,0,1,602.0000000000001,985)"/><g transform="matrix(-1,1.2246467991473532e-16,-1.2246467991473532e-16,-1,607.0000000000001,1090)"><path fill="#757575" stroke="#757575" paint-order="fill stroke markers" d=" M 10 15 L 0 15 L 5 0 Z" stroke-miterlimit="10" stroke-width="1.5" stroke-dasharray=""/></g><g transform="matrix(1,0,0,1,612.0000000000001,1037.5)"/></g><g id="_94CE2D06-5213-4A63-A326-709E5BCC7684"><g><path fill="none" stroke="#757575" paint-order="fill stroke markers" d=" M 602.0000000000001 1182 L 602.0000000000001 1783 L 751.2500000000001 1783 L 755.5047146582247 1803.318433265807" stroke-miterlimit="10" stroke-width="1.5" stroke-dasharray=""/></g><g transform="matrix(1,0,0,1,602.0000000000001,1182)"/><g transform="matrix(-0.9787711156128651,0.20495634472235172,-0.20495634472235172,-0.9787711156128651,763.4729154071242,1816.9752182763882)"><path fill="#757575" stroke="#757575" paint-order="fill stroke markers" d=" M 10 15 L 0 15 L 5 0 Z" stroke-miterlimit="10" stroke-width="1.5" stroke-dasharray=""/></g><g transform="matrix(1,0,0,1,612.0000000000001,1482.5)"/></g><g id="_49DCFB04-211F-4A42-8CA1-2A37DA24A900"><g><path fill="none" stroke="#f0ab00" paint-order="fill stroke markers" d=" M 565.9382716049383 985 L 538.5000000000001 1020 L 341.5000000000001 1020 L 310.3836761293 1076.8424184094679" stroke-miterlimit="10" stroke-width="1.5" stroke-dasharray="4,6"/></g><g transform="matrix(1,0,0,1,565.9382716049383,985)"/><g transform="matrix(-0.8771721060354734,-0.4801761097694181,0.4801761097694181,-0.8771721060354734,307.5668950129361,1092.400880548847)"><path fill="#f0ab00" stroke="#f0ab00" paint-order="fill stroke markers" d=" M 10 15 L 0 15 L 5 0 Z" stroke-miterlimit="10" stroke-width="1.5" stroke-dasharray=""/></g><g transform="matrix(1,0,0,1,546.3699216374839,996.3303700743184)"/></g><g id="_D4608825-B32C-4B0A-ACDD-7208A8AD4B6D"><g><path fill="none" stroke="#757575" paint-order="fill stroke markers" d=" M 278.0000000000001 1182 L 278.0000000000001 1217 L 239.33333333333337 1217 L 223.33697868763707 1253.2751979366972" stroke-miterlimit="10" stroke-width="1.5" stroke-dasharray=""/></g><g transform="matrix(1,0,0,1,278.0000000000001,1182)"/><g transform="matrix(-0.9149868042201939,-0.40348376436099204,0.40348376436099204,-0.9149868042201939,221.8596562433232,1269.017418821805)"><path fill="#757575" stroke="#757575" paint-order="fill stroke markers" d=" M 10 15 L 0 15 L 5 0 Z" stroke-miterlimit="10" stroke-width="1.5" stroke-dasharray=""/></g><g transform="matrix(1,0,0,1,288.0000000000001,1199.5)"/></g><g id="_1DFECB1A-EE15-41F7-8358-50D9817A1742"><g><path fill="none" stroke="#757575" paint-order="fill stroke markers" d=" M 197 1359 L 197 1394 L 721.6666666666669 1394 L 737.6630213123632 1430.2751979366972" stroke-miterlimit="10" stroke-width="1.5" stroke-dasharray=""/></g><g transform="matrix(1,0,0,1,197,1359)"/><g transform="matrix(-0.9149868042201933,0.4034837643609935,-0.4034837643609935,-0.9149868042201933,748.290211798879,1441.982581178195)"><path fill="#757575" stroke="#757575" paint-order="fill stroke markers" d=" M 10 15 L 0 15 L 5 0 Z" stroke-miterlimit="10" stroke-width="1.5" stroke-dasharray=""/></g><g transform="matrix(1,0,0,1,207,1376.5)"/></g><g id="_64F3B2F3-89F2-483D-B3D4-25048908A4AE"><g><path fill="none" stroke="#757575" paint-order="fill stroke markers" d=" M 764.0000000000002 1536 L 764.0000000000002 1606" stroke-miterlimit="10" stroke-width="1.5" stroke-dasharray=""/></g><g transform="matrix(1,0,0,1,764.0000000000002,1536)"/><g transform="matrix(-1,1.2246467991473532e-16,-1.2246467991473532e-16,-1,769.0000000000002,1621)"><path fill="#757575" stroke="#757575" paint-order="fill stroke markers" d=" M 10 15 L 0 15 L 5 0 Z" stroke-miterlimit="10" stroke-width="1.5" stroke-dasharray=""/></g><g transform="matrix(1,0,0,1,774.0000000000002,1578.5)"/></g><g id="_77A23E73-D1FB-4C41-B340-03A49A8350CF"><g><path fill="none" stroke="#757575" paint-order="fill stroke markers" d=" M 764.0000000000002 1713 L 764.0000000000002 1748 L 763.5000000000001 1748 L 763.5000000000001 1803" stroke-miterlimit="10" stroke-width="1.5" stroke-dasharray=""/></g><g transform="matrix(1,0,0,1,764.0000000000002,1713)"/><g transform="matrix(-1,1.2246467991473532e-16,-1.2246467991473532e-16,-1,768.5000000000001,1818)"><path fill="#757575" stroke="#757575" paint-order="fill stroke markers" d=" M 10 15 L 0 15 L 5 0 Z" stroke-miterlimit="10" stroke-width="1.5" stroke-dasharray=""/></g><g transform="matrix(1,0,0,1,774.0000000000002,1730.5)"/></g><g id="_7D3DEB2E-7DDD-495D-8173-55DE4200912F"><g><path fill="none" stroke="#c9190b" paint-order="fill stroke markers" d=" M 627.1810344827587 985 L 665.5000000000001 1055 L 842.3333333333335 1055 L 868.0789943968795 1079.6306914899278" stroke-miterlimit="10" stroke-width="1.5" stroke-dasharray="8,8"/></g><g transform="matrix(1,0,0,1,627.1810344827587,985)"/><g transform="matrix(-0.6912872340048155,0.7225800717581211,-0.7225800717581211,-0.6912872340048155,882.3741316432753,1086.3870996412095)"><path fill="#c9190b" stroke="#c9190b" paint-order="fill stroke markers" d=" M 10 15 L 0 15 L 5 0 Z" stroke-miterlimit="10" stroke-width="1.5" stroke-dasharray=""/></g><g transform="matrix(1,0,0,1,635.9527555431134,1015.1982389023058)"/></g><g id="_2FFA70B7-7D77-4375-8DF7-3FB52B054E7A"><g><path fill="none" stroke="#757575" paint-order="fill stroke markers" d=" M 927.0000000000002 1182 L 927.0000000000002 1783 L 775.7500000000001 1783 L 771.4952853417756 1803.318433265807" stroke-miterlimit="10" stroke-width="1.5" stroke-dasharray=""/></g><g transform="matrix(1,0,0,1,927.0000000000002,1182)"/><g transform="matrix(-0.9787711156128651,-0.2049563447223515,0.2049563447223515,-0.9787711156128651,773.3147957490046,1819.0247817236118)"><path fill="#757575" stroke="#757575" paint-order="fill stroke markers" d=" M 10 15 L 0 15 L 5 0 Z" stroke-miterlimit="10" stroke-width="1.5" stroke-dasharray=""/></g><g transform="matrix(1,0,0,1,937.0000000000002,1482.5)"/></g><g id="_BBF68ACA-23E5-4360-8778-6BC571942675"><g><path fill="none" stroke="#f0ab00" paint-order="fill stroke markers" d=" M 565.9382716049383 808 L 538.5000000000001 843 L 278.0000000000001 843 L 278.0000000000001 1075" stroke-miterlimit="10" stroke-width="1.5" stroke-dasharray="4,6"/></g><g transform="matrix(1,0,0,1,565.9382716049383,808)"/><g transform="matrix(-1,1.2246467991473532e-16,-1.2246467991473532e-16,-1,283.0000000000001,1090)"><path fill="#f0ab00" stroke="#f0ab00" paint-order="fill stroke markers" d=" M 10 15 L 0 15 L 5 0 Z" stroke-miterlimit="10" stroke-width="1.5" stroke-dasharray=""/></g><g transform="matrix(1,0,0,1,546.3699216374839,819.3303700743184)"/></g><g id="_AAF3B961-294F-41A5-8D72-E5EDD1D0ADF5"><g><path fill="none" stroke="#c9190b" paint-order="fill stroke markers" d=" M 638.0617283950619 808 L 665.5000000000001 843 L 842.3333333333335 843 L 842.3333333333335 1020 L 884.6666666666669 1020 L 905.0702454989158 1075.909019162383" stroke-miterlimit="10" stroke-width="1.5" stroke-dasharray="8,8"/></g><g transform="matrix(1,0,0,1,638.0617283950619,808)"/><g transform="matrix(-0.9393987225078104,0.3428265452830248,-0.3428265452830248,-0.9393987225078104,914.9096372907002,1088.285867273585)"><path fill="#c9190b" stroke="#c9190b" paint-order="fill stroke markers" d=" M 10 15 L 0 15 L 5 0 Z" stroke-miterlimit="10" stroke-width="1.5" stroke-dasharray=""/></g><g transform="matrix(1,0,0,1,645.9316500325456,819.3303700743184)"/></g><g id="_759958BC-37A6-4270-A434-C048987BA6FD"><g><path fill="none" stroke="#f0ab00" paint-order="fill stroke markers" d=" M 565.9382716049383 631 L 538.5000000000001 666 L 214.5000000000001 666 L 269.7767576779518 1075.1350568289342" stroke-miterlimit="10" stroke-width="1.5" stroke-dasharray="4,6"/></g><g transform="matrix(1,0,0,1,565.9382716049383,631)"/><g transform="matrix(-0.9909962114043879,0.13388991366846748,-0.13388991366846748,-0.9909962114043879,276.74008744000076,1089.3305504316577)"><path fill="#f0ab00" stroke="#f0ab00" paint-order="fill stroke markers" d=" M 10 15 L 0 15 L 5 0 Z" stroke-miterlimit="10" stroke-width="1.5" stroke-dasharray=""/></g><g transform="matrix(1,0,0,1,546.3699216374839,642.3303700743184)"/></g><g id="_187FB6DA-DBA0-488B-B9BE-42853B314AC1"><g><path fill="none" stroke="#c9190b" paint-order="fill stroke markers" d=" M 638.0617283950619 631 L 665.5000000000001 666 L 927.0000000000002 666 L 927.0000000000002 1075" stroke-miterlimit="10" stroke-width="1.5" stroke-dasharray="8,8"/></g><g transform="matrix(1,0,0,1,638.0617283950619,631)"/><g transform="matrix(-1,1.2246467991473532e-16,-1.2246467991473532e-16,-1,932.0000000000002,1090)"><path fill="#c9190b" stroke="#c9190b" paint-order="fill stroke markers" d=" M 10 15 L 0 15 L 5 0 Z" stroke-miterlimit="10" stroke-width="1.5" stroke-dasharray=""/></g><g transform="matrix(1,0,0,1,645.9316500325456,642.3303700743184)"/></g><g id="_ABCAB1CE-A20C-435A-B11F-41C49BC001BB"><g><path fill="none" stroke="#f0ab00" paint-order="fill stroke markers" d=" M 565.9382716049383 454 L 538.5000000000001 489 L 116.00000000000011 489 L 116.00000000000011 1217 L 154.66666666666674 1217 L 170.663021312363 1253.2751979366972" stroke-miterlimit="10" stroke-width="1.5" stroke-dasharray="4,6"/></g><g transform="matrix(1,0,0,1,565.9382716049383,454)"/><g transform="matrix(-0.9149868042201947,0.4034837643609902,-0.4034837643609902,-0.9149868042201947,181.2902117988788,1264.982581178195)"><path fill="#f0ab00" stroke="#f0ab00" paint-order="fill stroke markers" d=" M 10 15 L 0 15 L 5 0 Z" stroke-miterlimit="10" stroke-width="1.5" stroke-dasharray=""/></g><g transform="matrix(1,0,0,1,546.3699216374839,465.33037007431835)"/></g><g id="_D256F7C8-487F-4F97-90EA-D05C02FAF7AC"><g><path fill="none" stroke="#c9190b" paint-order="fill stroke markers" d=" M 638.0617283950619 454 L 665.5000000000001 489 L 979.9166666666669 489 L 979.9166666666669 1020 L 969.3333333333335 1020 L 948.9297545010846 1075.9090191623827" stroke-miterlimit="10" stroke-width="1.5" stroke-dasharray="8,8"/></g><g transform="matrix(1,0,0,1,638.0617283950619,454)"/><g transform="matrix(-0.9393987225078121,-0.34282654528302,0.34282654528302,-0.9393987225078121,948.4843499343783,1091.714132726415)"><path fill="#c9190b" stroke="#c9190b" paint-order="fill stroke markers" d=" M 10 15 L 0 15 L 5 0 Z" stroke-miterlimit="10" stroke-width="1.5" stroke-dasharray=""/></g><g transform="matrix(1,0,0,1,645.9316500325456,465.33037007431835)"/></g><g id="_C94FC110-FA71-4E4A-9832-23306E029E84"><g><path fill="none" stroke="#f0ab00" paint-order="fill stroke markers" d=" M 1051.3333333333335 277 L 1051.3333333333335 312 L 1090.0000000000002 312 L 1090.0000000000002 1394 L 806.3333333333335 1394 L 790.3369786876373 1430.2751979366972" stroke-miterlimit="10" stroke-width="1.5" stroke-dasharray="4,6"/></g><g transform="matrix(1,0,0,1,1051.3333333333335,277)"/><g transform="matrix(-0.9149868042201932,-0.40348376436099365,0.40348376436099365,-0.9149868042201932,788.8596562433233,1446.017418821805)"><path fill="#f0ab00" stroke="#f0ab00" paint-order="fill stroke markers" d=" M 10 15 L 0 15 L 5 0 Z" stroke-miterlimit="10" stroke-width="1.5" stroke-dasharray=""/></g><g transform="matrix(1,0,0,1,1061.3333333333335,294.5)"/></g><g id="_EFD2DD25-3D40-469A-8BF7-5C4EF98C4ED5"><g><path fill="none" stroke="#c9190b" paint-order="fill stroke markers" d=" M 1087.3950617283951 277 L 1114.8333333333335 312 L 1139.7500000000002 312 L 1139.7500000000002 1020 L 1011.6666666666669 1020 L 969.4179766682288 1077.8840319663639" stroke-miterlimit="10" stroke-width="1.5" stroke-dasharray="8,8"/></g><g transform="matrix(1,0,0,1,1087.3950617283951,277)"/><g transform="matrix(-0.8077312022424084,-0.5895509349700274,0.5895509349700274,-0.8077312022424084,964.6133686548905,1092.94775467485)"><path fill="#c9190b" stroke="#c9190b" paint-order="fill stroke markers" d=" M 10 15 L 0 15 L 5 0 Z" stroke-miterlimit="10" stroke-width="1.5" stroke-dasharray=""/></g><g transform="matrix(1,0,0,1,1095.2649833658786,288.33037007431835)"/></g></g></g></svg>